<svg xmlns="http://www.w3.org/2000/svg" width="93" height="34" viewBox="0 0 93 34">
    <path fill="#313233" d="M35.895 12.016A1.2 1.2 0 0 0 35.426 11a6.148 6.148 0 0 0-1.687-.75 11.963 11.963 0 0 1-1.93-.777 3.153 3.153 0 0 1-1.937-2.82A2.747 2.747 0 0 1 30.391 5a3.389 3.389 0 0 1 1.492-1.129 5.616 5.616 0 0 1 2.184-.406 5.112 5.112 0 0 1 2.172.441 3.458 3.458 0 0 1 1.48 1.246 3.261 3.261 0 0 1 .527 1.828H35.9a1.534 1.534 0 0 0-.49-1.21 2.023 2.023 0 0 0-1.383-.434 2.162 2.162 0 0 0-1.336.363 1.146 1.146 0 0 0-.477.957 1.1 1.1 0 0 0 .559.93 6.311 6.311 0 0 0 1.645.7 7.106 7.106 0 0 1 2.914 1.492A2.972 2.972 0 0 1 38.246 12a2.737 2.737 0 0 1-1.117 2.316 4.891 4.891 0 0 1-3.008.84 5.808 5.808 0 0 1-2.391-.48 3.783 3.783 0 0 1-1.645-1.316 3.371 3.371 0 0 1-.566-1.937h2.352q0 1.883 2.25 1.883a2.189 2.189 0 0 0 1.3-.34 1.106 1.106 0 0 0 .474-.95zm10.781-1.946h-4.5v3.047h5.281V15h-7.625V3.625h7.609v1.9h-5.265v2.709h4.5zm4.5 3.047h4.977V15h-7.32V3.625h2.344zM64.34 10.07h-4.5v3.047h5.281V15H57.5V3.625h7.609v1.9H59.84v2.709h4.5zm11.086 1.141a4.025 4.025 0 0 1-1.355 2.889 4.76 4.76 0 0 1-3.223 1.055 4.28 4.28 0 0 1-3.441-1.473 6.038 6.038 0 0 1-1.254-4.043v-.7a6.819 6.819 0 0 1 .578-2.891 4.332 4.332 0 0 1 1.652-1.918 5.164 5.164 0 0 1 5.668.387 4.326 4.326 0 0 1 1.391 2.961H73.1a2.376 2.376 0 0 0-.613-1.6 2.271 2.271 0 0 0-1.605-.5 1.991 1.991 0 0 0-1.754.84 4.707 4.707 0 0 0-.6 2.605V9.7a5.038 5.038 0 0 0 .559 2.7 1.954 1.954 0 0 0 1.762.852 2.314 2.314 0 0 0 1.621-.5 2.241 2.241 0 0 0 .613-1.535zM85.3 5.523h-3.483V15h-2.344V5.523h-3.438v-1.9H85.3zm8.18 4.547h-4.5v3.047h5.281V15h-7.624V3.625h7.609v1.9h-5.265v2.709h4.5zM95.637 15V3.625h3.5a5.315 5.315 0 0 1 2.684.676 4.712 4.712 0 0 1 1.848 1.922 5.928 5.928 0 0 1 .664 2.832v.523a5.945 5.945 0 0 1-.652 2.82 4.672 4.672 0 0 1-1.84 1.914A5.355 5.355 0 0 1 99.16 15zm2.344-9.477v7.594h1.133a2.545 2.545 0 0 0 2.1-.9 4.06 4.06 0 0 0 .742-2.57v-.6a4.124 4.124 0 0 0-.719-2.629 2.537 2.537 0 0 0-2.1-.895z" transform="translate(-20.52 8.416)"/>
</svg>
