<svg xmlns="http://www.w3.org/2000/svg" width="93" height="34" viewBox="0 0 93 34">
    <path fill="#313233" d="M17.574 3.625l2.922 8.25 2.904-8.25h3.08V15h-2.351v-3.109l.234-5.367L21.293 15h-1.609l-3.063-8.469.234 5.359V15h-2.343V3.625zm17.516 9.031h-4.11L30.2 15h-2.493l4.234-11.375h2.172L38.371 15h-2.492zm-3.477-1.9h2.844L33.027 6.5zM48.684 15H46.34l-4.563-7.484V15h-2.343V3.625h2.344l4.57 7.5v-7.5h2.336zM59.34 3.625v7.492a3.836 3.836 0 0 1-1.168 2.953 4.5 4.5 0 0 1-3.191 1.086 4.553 4.553 0 0 1-3.165-1.056 3.77 3.77 0 0 1-1.2-2.9V3.625h2.344v7.508a2.167 2.167 0 0 0 .535 1.629 2.054 2.054 0 0 0 1.48.512q1.977 0 2.008-2.078V3.625zm8.172 9.031H63.4L62.621 15h-2.492l4.234-11.375h2.172L70.793 15H68.3zm-3.477-1.9h2.844L65.449 6.5zM74.2 13.117h4.977V15h-7.32V3.625H74.2z" transform="translate(0 9)"/>
</svg>
