<svg xmlns="http://www.w3.org/2000/svg" width="750" height="60" viewBox="0 0 750 60">
  <path id="패스_1765" data-name="패스 1765" d="M1205.311,1384.579h34.066a6.029,6.029,0,0,0,1.1-.029c5.838-1.219,11.583.3,17.409.157a26.158,26.158,0,0,1,6.79.526,4.13,4.13,0,0,0,1.345-.014c8.808-1.253,17.892-1.3,26.975-1.467,3.935-.073,7.822-.538,11.81-.573,2.67-.024,5.33-.262,8-.4a7.985,7.985,0,0,1,2.936.28,27.681,27.681,0,0,0,8.475,1c2.959.044,5.938-.12,8.867.209a1.1,1.1,0,0,0,.275.009c4.427-.767,8.736.124,13.051.128,2.879,0,5.6.124,8.416.2,6.734.186,13.568-.094,20.354-.4,8.212-.375,16.485-.092,24.731-.091a4.528,4.528,0,0,1,1.991.378c2.126,1.663,5.5,1.145,8.5,1.077,4.134-.094,8.225-.582,12.408-.234a7.419,7.419,0,0,0,1.9-.124,43.5,43.5,0,0,1,16.445.205c2.035.38,5.211.654,6.11.248,2.01-.906,4.391-.8,6.387-1.258a10.376,10.376,0,0,1,5.859.059c2.447.759,4.863.012,7.289.037.357,0,.613-.189.566-.388-.384-1.649,1.581-1.023,2.832-.563a4.091,4.091,0,0,0,3.736-.371,4.181,4.181,0,0,1,2.885-.537c1.18.244.748.7.5,1.127-.185.322.235.514.876.521,1.151.011,2.609.238,3.113-.488.867-1.252,2.576-1.188,4.6-.751a3.585,3.585,0,0,0,1.548.2c4.771-1.024,9.845.073,14.834-.5,2.324-.265,5.036-.008,7.417-.675a7.647,7.647,0,0,1,2.43.074,52.186,52.186,0,0,0,10.472.188,1.191,1.191,0,0,1,.271-.02c3.3.8,6.833.344,10.16.235,3.681-.121,7.378.436,11.075-.245,3.045-.56,6.325.129,9.56-.04,3.664-.191,7.408-.021,11.116-.05a21.873,21.873,0,0,0,6.608-.817,7.73,7.73,0,0,1,3.7-.327,47.858,47.858,0,0,0,10.167.247,7.927,7.927,0,0,1,1.374-.046c5.268.79,10.817.386,16.175.877,4.8.44,9.76.419,14.585.7,6.39.369,12.717-.141,19.042.171,1.133.056,2.644-.081,2.2.883-.222.478.516.606,1.322.632s1.38-.108,1.638-.532c.811-1.328,3.844-1.421,5.682-2.187a2.243,2.243,0,0,1,1.523.177c2.61,1.548,6.4,1.149,9.752,1.209,5.506.1,11.027-.023,16.549,0,11.761.055,23.536.316,35.292-.146,3.321-.13,6.646-.247,9.975-.308,2.055-.037,4.067.051,5.449-.917a2.34,2.34,0,0,1,2.369.039c1.915,1.217,4.713,1.124,7.324,1.028a117.429,117.429,0,0,1,14.4.116,85.287,85.287,0,0,0,8.828.047c9.813-.169,19.633-.1,29.387.573a80.362,80.362,0,0,1,11.349,1.148c2.848.615,4.755,1.488,5.595,2.869.546.9,1.6,1.522,3.4,1.943,3.586.841,4.494,2.339,4.758,4.106.2,1.373,1.029,2.693-.675,4.01-.584.451.359.9,1.245,1.184q2.767.878,5.575,1.725c.7.214,1.875.481,1.565.82-1.526,1.658,1.432,3.415-.714,5.071a3.715,3.715,0,0,1-2.461,1.069c-1.816.132-2.3.532-.963,1.211,1.085.549,1.055,1.16.725,1.832s0,1.046,1.77,1.083c2.4.049,2.943.589,1.427,1.519-1.887,1.158-1.84,2.539-1.983,3.808-.147,1.289-1.28,1.825-3.614,2.053-4.491.438-5.082.681-5.024,2.828a6.524,6.524,0,0,1-1.849,4.714c-.245.272-.5.626-.333.883.754,1.161-.422,2.023-1.8,2.867-1.019.626-1.231,1.239-.091,1.9a1.191,1.191,0,0,1,.663,1.245c-.042.628.44,1.4-1.329,1.679a4.081,4.081,0,0,1-3.629-.8c-.491-.5-1.258-.492-2.309-.4-6.311.556-12.482,1.3-19.139.939a80.38,80.38,0,0,0-10.932.683c-3.719.329-7.366-.178-11.051.04-1.066.063-2.193,0-3.3.081a22.657,22.657,0,0,1-6.041-.144c-1.872-.379-3.51-1.268-5.45-.021-.437.281-1.337-.021-2.018-.18-2.556-.6-4.53-.369-5.879.755a5.443,5.443,0,0,1-3.576,1.272,2.209,2.209,0,0,0-.974.2c-1.222,1.555-3.81,1.235-6.455,1.2-2.133-.025-4.487.076-5.84,1.167a2.66,2.66,0,0,1-2.791.1c-3.136-1.558-7.252-1.516-11.159-1.307a171.969,171.969,0,0,1-17.616.059c-2.823-.139-5.528.081-8.278.077-8.779-.012-17.687.26-26.3-.346-9.328-.657-18.646-.071-27.885-.666-3.753-.241-7.5-.5-11.24-.79a262.689,262.689,0,0,0-29.339-.59c-8.016.265-16.1.074-24.144.153-27.29.267-54.586.087-81.875.238-5.469.031-10.875-.087-16.316-.239-4.136-.115-8.314.141-12.476.184-9.583.1-19.2-.276-28.729.557a29.305,29.305,0,0,1-3.048-.017c-2.63-.052-4.367.31-4.894,1.719-.538,1.433-2.538,1.7-4.237.48-2.612-1.875-6.167-1.9-10.291-2.016a237.115,237.115,0,0,1-24.173-1.527,102.619,102.619,0,0,0-18.44-.641,10.926,10.926,0,0,1-1.379.055c-7.935-.668-15.858-.146-23.784.039-2.118.049-3.632-.789-5.819-.751-7.3.127-14.592.082-21.865.583-7.452.513-15.018.333-22.485.124-5.144-.144-10.152.13-15.214.268a8.608,8.608,0,0,1-3.594-.416c-2.221-.892-4.179-.753-5.644.385a5.058,5.058,0,0,1-3.1.63c-2.966.02-5.872-.374-8.865-.254-1.513.061-2.752.159-2.986,1.022-.208.771-1.345.877-2.346.436-2.343-1.034-5.348-.845-7.919-.785-4.821.115-9.654-.066-14.441.139-7.711.33-15.438-.634-23.151.172a29.412,29.412,0,0,1-4.922-.3c-.462-.036-.89-.164-.985-.4-.11-.276.384-.358.784-.465a8.192,8.192,0,0,0,1.4-.408c.609-.313,1.478-.668,1.082-1.125-.468-.54-1.567-.27-2.452-.238-1.476.053-2.953.107-4.432.124-2.013.023-3.8.137-3.7,1.393.033.408-.5.521-1.273.477a6.141,6.141,0,0,1-2.346-.335c-3.171-1.886-7.2-.956-11-.78-3.545.165-7.08.372-10.623.538a6.789,6.789,0,0,1-3.427-.724c-1.475-.723-3.314-.671-5.316-.764-6.095-.284-11.887.729-17.866.7-2.782-.016-5.46-.277-7.79.8a2.467,2.467,0,0,1-2.627-.508,2.729,2.729,0,0,0-2.361-.7c-1.2.116-1.985.442-2.229,1.026-.409.974-1.788,1.276-3.7,1.109a17.973,17.973,0,0,0-3.852.021,7.651,7.651,0,0,1-3.63-.441c-.5-.178-1.306-.339-1.078-.682.294-.44,1.063-.152,1.637-.1.466.043.984.1,1.212-.14.286-.307-.267-.471-.694-.634a10.758,10.758,0,0,0-3.923-.521c-4.309.046-8.163-.247-9.79-2.548-.473-.668-2.049-.816-3.431-.973-4.569-.52-6.673-1.64-7.375-3.776a3.163,3.163,0,0,0-1.231-1.856c-2.38-1.563-2.143-3.53-3.92-5.176-.6-.556.364-.971,1.117-1.368,2.288-1.208,2.3-1.924-.244-3.091-1.142-.525-1.16-.947-.126-1.436,1.556-.735.963-1.32-.556-1.829-1.551-.52-.961-.791-.252-1.581,1.45-1.615,5.192-3.012,3.127-5.181-1.089-1.144-.369-2.494-.709-3.66-.317-1.087,1.493-2.894-2.7-3.465-1.107-.151-1.045-.683-.374-1.087.8-.484.694-1.028.848-1.59.273-1,.412-1.814-1.158-2.722-1.137-.658-.268-1.572,1.858-1.75a15.317,15.317,0,0,0,5.023-1.523c5.518-2.189,11.289-4.216,18.972-4.256,3.97-.021,7.9-.5,11.921-.146a20.261,20.261,0,0,0,3.748-.387c6.425-.742,13.1-.333,19.586-.97,2.593-.254,5.381.414,8.191.483,4.365.107,8.69-.1,13.035-.068,3.942.031,7.118-.536,8.943-2.442.962-1,3.28-1.375,5.732-1.025a8.716,8.716,0,0,0,2.962.165,10.225,10.225,0,0,1,5.927.511,4.64,4.64,0,0,0,2.844.113,25.784,25.784,0,0,1,2.862-.5c2.27-.267,3.719.291,3.345,1.36-.2.575-.2,1.009,1.166,1.051,5.853.18,11.306,1.31,17.092,1.636Z" transform="translate(-1071.569 -1380.448)"/>
</svg>
