<svg xmlns="http://www.w3.org/2000/svg" id="button_makeavideo_off" width="34" height="34" viewBox="0 0 34 34">
    <defs>
        <style>
            .cls-2{fill:#fff}
        </style>
    </defs>
    <circle id="타원_24" cx="17" cy="17" r="17" fill="#f28234" opacity="0.002"/>
    <g id="그룹_3351" transform="translate(-2901 -1347)">
        <path id="패스_1722" d="M2910.323 1366.27l-3.5 3.658 3.637 3.4 3.57-3.705z" class="cls-2"/>
        <path id="패스_1723" d="M2910.764 1357.309v2.922h13.018v-2.922z" class="cls-2"/>
        <path id="패스_1724" d="M2923.006 1363.618l5.586-4.54v9.821z" class="cls-2"/>
        <path id="빼기_9" fill="#f28234" d="M4.225 17.843h-.03a4.041 4.041 0 0 1-1.606-.331 4.324 4.324 0 0 1-2.26-2.258 4.175 4.175 0 0 1 .914-4.612 4.4 4.4 0 0 1 1.343-.914A4.012 4.012 0 0 1 4.2 9.391h.02a4.158 4.158 0 0 1 1.629.331A4.264 4.264 0 0 1 8.1 11.983a4.077 4.077 0 0 1 .327 1.635 4.018 4.018 0 0 1-.327 1.625 4.37 4.37 0 0 1-2.258 2.264 4.254 4.254 0 0 1-1.617.336zm-2.071-4.788a.556.556 0 0 0-.382.158.545.545 0 0 0-.148.4.557.557 0 0 0 .16.413.6.6 0 0 0 .393.151h1.485v1.482a.549.549 0 0 0 .173.409.539.539 0 0 0 .358.139h.016a.6.6 0 0 0 .416-.159.535.535 0 0 0 .151-.388v-1.481h1.441a.542.542 0 0 0 .067 0 .52.52 0 0 0 .386-.175.568.568 0 0 0-.018-.8.532.532 0 0 0-.358-.149H4.776v-1.538a.528.528 0 0 0-.509-.493H4.2a.53.53 0 0 0-.537.554v1.477H2.207zm13 2.563c-.065 0-.132 0-.2-.005H8.871l.01-.017a.242.242 0 0 0 .013-.023 4.86 4.86 0 0 0 .4-1.964 4.955 4.955 0 0 0-.4-1.979A5.116 5.116 0 0 0 6.2 8.915a5 5 0 0 0-1.966-.4h-.062a4.647 4.647 0 0 0-.825.078V5.52h-.011V5.2v-.923-.997h.014a3.2 3.2 0 0 1 .911-2.4A3.371 3.371 0 0 1 6.518 0h8.633a3.415 3.415 0 0 1 2.271.871 3.274 3.274 0 0 1 .893 2.409v1.862l2.623-2.218a2.922 2.922 0 0 1 .569-.374 1.407 1.407 0 0 1 .617-.153h.04a1.3 1.3 0 0 1 .952.406 1.472 1.472 0 0 1 .38 1.061v8.265a1.488 1.488 0 0 1-.376 1.056 1.271 1.271 0 0 1-.921.418h-.077a1.362 1.362 0 0 1-.621-.165 2.985 2.985 0 0 1-.563-.378l-2.623-2.219v1.477a3.25 3.25 0 0 1-.885 2.423 3.38 3.38 0 0 1-2.271.877zM21.8 4.371l-.017.016-3.466 2.84v1.525l3.475 2.848zM6.885 1.641a2 2 0 0 0-2 2h12a2 2 0 0 0-2-2z" transform="translate(2906.25 1356.079)"/>
    </g>
</svg>
