<svg xmlns="http://www.w3.org/2000/svg" id="button_images_videos_off" width="34" height="34" viewBox="0 0 34 34">
    <defs>
        <style>
            .cls-2{fill:#313233}
        </style>
    </defs>
    <g id="button_images_videos_on" transform="translate(7 9)">
        <path id="패스_172" d="M237.551 98.117a1.944 1.944 0 1 0 1.944 1.944 1.944 1.944 0 0 0-1.944-1.944z" class="cls-2" transform="translate(-222.852 -94.459)"/>
        <path id="패스_173" d="M238.146 94.792H223.86a2.849 2.849 0 0 0-2.86 2.833v11.333a2.849 2.849 0 0 0 2.857 2.833h14.286a2.855 2.855 0 0 0 1.347-.335h.061l.011-.041a2.83 2.83 0 0 0 1.438-2.456V97.625a2.848 2.848 0 0 0-2.854-2.833zm-3.023 8.759l-.01-.011a.8.8 0 0 0-1.107-.005l-.017.016s-.064.05-.348.32c-.278.213-.261.264-.421.354-.777.445-1.121 0-1.121 0s-1.532-1.7-2.485-2.649a.966.966 0 0 0-1.609.079s-3.952 4.755-5.263 6.345v-9.808a1.722 1.722 0 0 1 1.739-1.7h13.043a1.722 1.722 0 0 1 1.739 1.7v9.761c-1.19-1.278-3.715-3.979-4.14-4.402z" class="cls-2" transform="translate(-221.003 -94.792)"/>
    </g>
</svg>
