<svg xmlns="http://www.w3.org/2000/svg" id="button_participants_off" width="34" height="34" viewBox="0 0 34 34">
    <defs>
        <style>
            .cls-2{fill:#313233}
        </style>
    </defs>
    <g id="button_participants" transform="translate(7 7)">
        <path id="패스_170" d="M236.056 124.828a3.149 3.149 0 0 0-3.359 0 3.6 3.6 0 0 0-1.644 3.088 3.8 3.8 0 0 0 .45 1.858 3.587 3.587 0 0 0 1.194 1.3 3.064 3.064 0 0 0 1.674.5h.043a2.976 2.976 0 0 0 1.65-.475 3.511 3.511 0 0 0 1.194-1.312 3.871 3.871 0 0 0 .445-1.868 3.658 3.658 0 0 0-.447-1.788 3.518 3.518 0 0 0-1.2-1.303z" class="cls-2" transform="translate(-224.403 -119.855)"/>
        <path id="패스_171" d="M234.4 119.855a10 10 0 1 0 10 10 10.012 10.012 0 0 0-10-10zm5.286 14.853a7.36 7.36 0 0 0-2.235-1.1 11.14 11.14 0 0 0-6.148 0 7.34 7.34 0 0 0-2.24 1.1 4.684 4.684 0 0 0-.572.519 8 8 0 1 1 11.795.026 4.636 4.636 0 0 0-.597-.545z" class="cls-2" transform="translate(-224.403 -119.855)"/>
    </g>
</svg>
