<svg xmlns="http://www.w3.org/2000/svg" width="34" height="34" viewBox="0 0 34 34">
    <rect width="34" height="34" fill="#fff" opacity="0.8" rx="17"/>
    <path fill="#313233" d="M4.3 22.489h9.53a1.945 1.945 0 0 0 1.467-.5 2.189 2.189 0 0 0 .482-1.562v-7.36a2.189 2.189 0 0 0-.482-1.562A1.945 1.945 0 0 0 13.83 11l-9.349.021a2.288 2.288 0 0 0-1.556.5 1.944 1.944 0 0 0-.571 1.546v7.357a2.173 2.173 0 0 0 .487 1.562 1.948 1.948 0 0 0 1.459.503zm8.206-10.8h1.764V8.35a4.111 4.111 0 0 1 .456-2.018 3.085 3.085 0 0 1 1.216-1.242 3.5 3.5 0 0 1 3.322 0 3.119 3.119 0 0 1 1.221 1.242 4.073 4.073 0 0 1 .461 2.018v2.159a.994.994 0 0 0 .252.734.919.919 0 0 0 1.252.01.976.976 0 0 0 .257-.744V8.55a6.465 6.465 0 0 0-.425-2.45 4.935 4.935 0 0 0-1.148-1.735A4.818 4.818 0 0 0 19.5 3.33a5.347 5.347 0 0 0-3.784 0 4.8 4.8 0 0 0-2.788 2.77 6.537 6.537 0 0 0-.419 2.447z" transform="translate(7.934 3.511)"/>
</svg>
