<svg xmlns="http://www.w3.org/2000/svg" width="34" height="34" viewBox="0 0 34 34">
    <rect width="34" height="34" fill="#fff" opacity="0.8" rx="17"/>
    <path fill="#313233" d="M5.846 22.489h9.527a1.945 1.945 0 0 0 1.467-.5 2.189 2.189 0 0 0 .482-1.562v-7.36a2.189 2.189 0 0 0-.482-1.562 1.945 1.945 0 0 0-1.467-.5l-9.349.021a2.288 2.288 0 0 0-1.556.5 1.944 1.944 0 0 0-.568 1.541v7.357a2.173 2.173 0 0 0 .487 1.562 1.948 1.948 0 0 0 1.459.503zm-.335-10.8h1.76V8.35a4.073 4.073 0 0 1 .461-2.018 3.119 3.119 0 0 1 1.221-1.241 3.5 3.5 0 0 1 3.322 0 3.085 3.085 0 0 1 1.216 1.242 4.111 4.111 0 0 1 .456 2.018v3.343h1.761V8.55a6.537 6.537 0 0 0-.419-2.45A4.8 4.8 0 0 0 12.5 3.33a5.347 5.347 0 0 0-3.784 0 4.818 4.818 0 0 0-1.633 1.038A4.935 4.935 0 0 0 5.935 6.1a6.465 6.465 0 0 0-.424 2.45z" transform="translate(6.391 3.511)"/>
</svg>
