<svg xmlns="http://www.w3.org/2000/svg" width="34" height="34" viewBox="0 0 34 34">
    <g>
        <path fill="#313233" d="M116 145.024a3.132 3.132 0 0 0-.745-2.259 2.891 2.891 0 0 0-2.168-.76h-8.151a2 2 0 0 1-.709-.114 2.271 2.271 0 0 1-.629-.4l-.5-.441a4.2 4.2 0 0 0-.586-.415 2.05 2.05 0 0 0-.629-.229 3.861 3.861 0 0 0-.78-.064h-2.455a2.508 2.508 0 0 0-1.942.752 3.117 3.117 0 0 0-.688 2.2v11.018a3.129 3.129 0 0 0 .746 2.266 2.926 2.926 0 0 0 1.962.763c.069 0 .139 0 .208-.007h14.381a2.538 2.538 0 0 0 1.983-.775 3.174 3.174 0 0 0 .7-2.236zM97.847 143.4a1.218 1.218 0 0 1 .279-.862 1.115 1.115 0 0 1 .835-.3h1.729a1.864 1.864 0 0 1 .7.114 2.343 2.343 0 0 1 .636.4l.5.438a2.979 2.979 0 0 0 .593.42 2.279 2.279 0 0 0 .636.219 3.979 3.979 0 0 0 .784.064h8.492a1.128 1.128 0 0 1 .849.306 1.3 1.3 0 0 1 .3.932v.394H97.848z" transform="translate(7 9) translate(-96.01 -140.336)"/>
    </g>
</svg>
